<svg width="19" height="35" viewBox="0 0 19 35" fill="none" xmlns="http://www.w3.org/2000/svg">
<path d="M18.5381 0.909048C18.3341 0.698127 18.0917 0.530784 17.8248 0.416605C17.558 0.302425 17.2719 0.243652 16.983 0.243652C16.6941 0.243652 16.408 0.302425 16.1411 0.416605C15.8743 0.530784 15.6319 0.698127 15.4279 0.909048L0.825543 15.966C0.662645 16.1336 0.533407 16.3328 0.445228 16.5519C0.35705 16.7711 0.311661 17.0061 0.311661 17.2434C0.311661 17.4807 0.35705 17.7157 0.445228 17.9349C0.533407 18.1541 0.662645 18.3532 0.825543 18.5208L15.4279 33.5778C16.2889 34.4656 17.6771 34.4656 18.5381 33.5778C19.3991 32.6899 18.8609 31.7144 17.9999 30.8266L5.0858 17.2434L17.9999 3.59045C18.4966 3.07657 19.3991 1.77876 18.5381 0.909048Z" fill="black"/>
</svg>
